<?xml version="1.0" encoding="UTF-8" standalone="no"?>
<svg xmlns="http://www.w3.org/2000/svg" height="26px" width="160px" version="1.1" xmlns:xlink="http://www.w3.org/1999/xlink" viewBox="0 0 160 26"><!-- Generator: Sketch 50.2 (55047) - http://www.bohemiancoding.com/sketch -->
 <title>Logo</title>
 <desc>Created with Sketch.</desc>
 <g id="desktop" fill-rule="evenodd" fill="none">
  <g id="Desktop" fill="#fff" transform="translate(-40 -34)">
   <g id="Logo" transform="translate(39 33)">
    <g id="correctarium" transform="translate(1 1)">
     <path id="c" d="m8.0551 8c3.6929 0 3.7149 2.362 3.6929 2.902-0.075 1.908-2.3221 1.865-2.7776 1.47-0.4869-0.423 0.0926-1.557-0.4444-1.557-2.3262 0-4.1926 5.453-4.1926 8.33 0 1.508 0.5443 3.709 2.5758 3.709 3.4368 0 5.7668-4.303 5.7668-4.303v1.995s-2.9516 4.972-7.308 4.972c-3.6808 0-5.3105-3.633-5.3105-6.436 0.00002-5.587 3.2774-11.082 7.9976-11.082z"/>
     <path id="o" fill-rule="nonzero" d="m18.911 8.5483c-4.765 0-6.684 8.7007-6.684 10.782 0 0.74 0.353 5.582 4.762 6.043 4.633 0.485 7.49-7.144 7.764-10.879 0.294-4.019-1.717-4.8169-2.549-4.5374-0.879 0.2954-0.918 1.3174-0.582 1.7664 0.856 1.146 2.054 1.633 3.074 1.633 1.484 0 2.488-0.801 2.488-0.801l-0.468-0.968s-0.469 0.594-1.948 0.594-2.278-0.907-2.278-0.907 0.995 0.904 0.734 3.177c-0.331 2.875-2.343 8.436-5.238 8.436-0.66 0-2.142-0.619-1.768-3.736 0.68-5.654 4.735-8.82 4.735-8.82s0-1.7827-2.042-1.7827z"/>
     <path id="r" fill-rule="nonzero" d="m27.92 11.112s0.51-0.839 0.715-1.8739c0.065-0.3258 0.168-0.8509 0-0.8899-0.105-0.0245-0.272 0.3342-0.329 0.6111-0.036 0.1756-0.65 2.1127 1.273 2.4417 1.22 0.208 4.415-0.475 4.717 0.979 0.174 0.836-1.911 3.727-2.596 6.418-0.47 1.847-0.734 3.847 0.463 3.847 3.147 0 7.287-11.244 7.287-11.244l0.928 0.448s-4.561 13.481-9.579 13.481c-1.299 0-3.383-1.325-3.383-4.225 0-3.586 2.476-7.942 2.314-7.942-2.816 0-4.401-1.545-4.401-3.5862 0.001-2.2379 1.609-3.0768 2.591-3.0768 1.253 0 1.926 1.2997 1.977 1.8482 0.198 2.1368-1.231 3.2188-1.231 3.2188l-0.746-0.455z"/>
     <path id="r" fill-rule="nonzero" d="m38.935 12.398s0.733-1.007 1.054-2.8212c0.124-0.7018 0-1.2286-0.353-1.2286-0.351 0-0.54 0.9427-0.54 1.2286 0 1.3072 0.786 1.9622 1.483 2.1412 0.77 0.199 4.544-0.643 4.801 0.68 0.149 0.768-1.648 3.709-2.333 6.4-0.471 1.847-0.735 4.013 0.463 4.013 2.369 0 4.614-6.295 4.614-6.295l0.41 1.194s-1.705 7.62-6.722 7.62c-1.299 0-3.05-1.325-3.05-4.225 0-3.586 2.31-7.942 2.147-7.942-2.816 0-4.401-1.545-4.4-3.5862 0-2.2379 1.604-3.0768 2.587-3.0768 1.253 0 2.094 1.1492 2.084 2.15-0.02 2.107-1.191 3.748-1.191 3.748h-1.054z"/>
     <path id="e" fill-rule="nonzero" d="m47.595 19.526c0-2.58 2.37-10.992 8.027-10.992 2.551-0.0003 3.405 1.661 3.065 2.915-1.053 3.887-8.013 8.347-8.013 8.347s-0.518-1.367-0.35-1.421c0.903-0.291 8.622-6.926 6.271-7.637-0.967-0.292-4.487 2.039-5.368 8.351 0 0-0.4 4.182 2.416 4.182 3.514 0 6.09-5.811 6.09-5.811l1.089 0.351s-3.216 7.315-7.923 7.548c-1.203 0.059-5.304-0.861-5.304-5.833z"/>
     <path id="Path-6" d="m66.622 8.6681c3.33 0 4.194 1.5829 4.194 2.5239 0 0.976-1.418 1.457-2.278 0.843-0.78-0.558-0.311-1.061-0.777-1.061-2.145 0-4.365 4.669-4.36 8.014 0.003 1.783 0.493 3.709 2.164 3.969 2.973 0.461 4.04-2.068 4.387-1.841 0.703 0.46-1.649 4.25-5.734 4.25-3.516 0-5.26-3.475-5.26-6.171 0-5.374 3.971-10.527 7.664-10.527z"/>
     <path id="Combined-Shape" d="m80.403 6.2933c0.029 0 0.058 0.0001 0.087 0.0001 2.532 0 6.578-0.0858 6.69 0.003 0.265 0.2109-0.831 1.7394-2.534 2.1708-0.726 0.184-2.746 0.3451-4.949 0.4489-1.649 5.2649-5.013 14.049-2.308 14.049 1.9 0 5.506-5.146 5.506-5.146l0.375 1.568s-4.028 6.013-7.173 6.013c-6.73 0-3.449-8.774-0.89-16.362-1.604 0.0064-2.797-0.0438-2.936-0.1705-0.365-0.332 0.669-2.2919 1.113-2.5523 0.092-0.0534 1.258-0.0584 2.716-0.0503 0.645-2.4972-0.004-4.6304-2.669-4.6304-3.738 0-5.152 2.6383-5.333 4.14-0.344 2.8469 0.884 3.287 0.884 3.287l-1.872 0.3609s-0.881-1.3093-0.612-3.6845c0.343-3.0336 3.236-5.6791 7.301-5.6772 4.484 0.001984 7.243 2.3391 6.604 6.2326z"/>
     <path id="Combined-Shape" d="m91.259 20.816c0.028-0.649 0.111-1.359 0.247-2.124 0.406-2.288 1.341-5.332 2.126-6.439 0.209-0.295 3.493-0.326 3.486-0.028-0.014 0.598-3.77 10.835-1.639 10.835 2.341 0 6.781-10.642 6.781-10.642l1.03 0.345s-4.759 12.604-9.089 12.604c-1.672 0-2.609-1.032-2.874-2.862-1.208 1.366-2.907 2.817-4.676 2.817-3.702 0-5.397-3.718-4.591-8.016 0.853-4.544 4.076-8.5619 8.299-8.5619 3.622 0 3.91 2.2749 3.491 2.7539-0.195 0.222-0.542-1.003-2.089-1.003-2.064 0-4.943 4.256-5.451 7.613-0.507 3.357 0.167 4.873 1.736 4.873 1.024 0 2.242-1.075 3.213-2.165z"/>
     <path id="r" fill-rule="nonzero" d="m102.17 12.398s0.74-1.007 1.06-2.8212c0.12-0.7018 0-1.2286-0.36-1.2286-0.35 0-0.54 0.9427-0.54 1.2286 0 1.3072 0.79 1.9982 1.49 2.1412 0.97 0.199 4.75-0.491 4.97 0.68 0.13 0.759-1.65 3.709-2.34 6.4-0.47 1.847-0.73 3.847 0.47 3.847 2.33 0 6.74-10.459 6.74-10.459l1.09 0.046s-4.51 13.098-9.53 13.098c-1.3 0-3.22-1.325-3.22-4.225 0-3.586 2.31-7.942 2.15-7.942-2.82 0-4.403-1.545-4.402-3.5862 0-2.2379 1.602-3.0768 2.582-3.0768 1.26 0 2.1 1.1492 2.09 2.15-0.02 2.107-1.03 3.748-1.03 3.748h-1.22z"/>
     <path id="Combined-Shape" d="m118.71 9.7978c-1.6 5.4942-5.06 13.025-2.28 13.025 1.9 0 5.51-5.435 5.51-5.435l0.37 1.155s-4.02 6.851-7.17 6.851c-6.4 0-3.11-8.381-0.69-15.638 0.2-0.6069 4.43-0.5473 4.26 0.0418zm-2.51-5.4809c0.94-0.5386 1.96-0.2774 2.57 0.3114 0.61 0.5889 0.34 2.2817-0.52 2.7765-0.86 0.4947-1.81 0.3162-2.44-0.295s-0.54-2.2544 0.39-2.7929z"/>
     <path id="Combined-Shape" d="m129.49 18.303c0.57-2.619 1.68-5.579 2.65-8.177 0.2-0.5432 4.42-0.4898 4.25 0.038-1.59 4.923-5.05 12.937-2.27 12.937 1.9 0 5.51-5.869 5.51-5.869l0.37 1.316s-4.03 6.857-7.17 6.857c-2.85 0-3.78-1.738-3.72-4.24-1.09 1.713-3.05 4.24-5.12 4.24-6.41 0-3.12-8.776-0.7-15.279 0.2-0.5432 4.43-0.4898 4.26 0.038-1.59 4.923-5.05 12.937-2.27 12.937 1.27 0 3.13-2.892 4.21-4.798z"/>
     <path id="Combined-Shape" d="m148.05 24.771c-0.59 0.724-3.14 0.59-3.25 0.175-0.4-1.442 2.31-10.061 1.94-10.061-0.16 0-4.97 7.839-6.19 9.835-0.1 0.18-0.19 0.326-0.27 0.434-0.01 0.016-0.01 0.024-0.01 0.024v-0.001c-0.09 0.112-0.17 0.177-0.24 0.19-0.92 0.176-2.57 0.002-2.84-0.237-0.69-0.608 3.35-15.128 3.63-15.24 1.47-0.6066 4.18 0.0004 4.18 0.545 0 0.689-1.06 4.64-2.22 8.305 2.41-4.162 5.54-8.9138 7.33-9.0752 3.51-0.3182 1.46 4.5052 0.16 8.2662-0.17 0.518-0.34 1.009-0.49 1.471 1.68-3.001 3.73-6.454 5.14-8.072 0.86-0.983 1.72-2.197 3.64-1.4642 2.27 0.8632-1.68 4.9012-2.32 11.274-0.19 1.886 0.35 4.495 0.61 4.734 0.26 0.24-3.33 0.328-4.25-2.944-0.77-2.758 0.86-7.569 0.86-7.569l-5.29 9.211c-0.03 0.046-0.05 0.088-0.07 0.126-0.01 0.018-0.02 0.036-0.04 0.053l-0.01 0.02z"/>
    </g>
   </g>
  </g>
 </g>
</svg>
